<svg width="67" height="56" viewBox="0 0 67 56" fill="none" xmlns="http://www.w3.org/2000/svg">
<g clip-path="url(#clip0_20_72)">
<path d="M0 51.3256C0.42498 50.6643 1.02835 50.4555 1.81011 50.4694C4.86367 50.5024 7.91723 50.4694 10.9708 50.492C11.3678 50.492 11.5742 50.3911 11.7578 50.0082C12.5098 48.442 13.7918 47.5875 15.5354 47.5614C17.279 47.5353 18.5995 48.3463 19.383 49.9003C19.6173 50.3667 19.8674 50.4937 20.3641 50.4937C35.2611 50.4821 50.1576 50.4821 65.0535 50.4937C65.3366 50.4835 65.62 50.4934 65.9017 50.5233C66.2069 50.565 66.4867 50.7151 66.6892 50.9461C66.8917 51.1771 67.0034 51.4733 67.0035 51.7798C67.0094 52.0756 66.9102 52.364 66.7233 52.5942C66.5365 52.8243 66.274 52.9815 65.9821 53.038C65.6595 53.0885 65.3328 53.1095 65.0063 53.1007C50.1524 53.1007 35.2996 53.1007 20.448 53.1007C19.9234 53.1007 19.6208 53.2051 19.355 53.7271C18.5785 55.2499 17.2563 56.04 15.5476 56.0173C13.839 55.9947 12.5465 55.1681 11.798 53.6332C11.5812 53.1912 11.3398 53.1111 10.9078 53.1111C7.89799 53.125 4.88815 53.1007 1.87831 53.1303C1.08081 53.1303 0.442473 52.9562 0.0035012 52.2601L0 51.3256ZM15.5931 53.4035C16.0216 53.4 16.4321 53.2315 16.7383 52.9333C17.0445 52.6351 17.2227 52.2304 17.2353 51.8042C17.2351 51.5875 17.1919 51.3729 17.1082 51.1728C17.0246 50.9727 16.9021 50.791 16.7478 50.6381C16.5934 50.4852 16.4103 50.3641 16.2089 50.2816C16.0074 50.1992 15.7917 50.1572 15.5739 50.1579C15.1459 50.1656 14.7383 50.3414 14.4399 50.6468C14.1415 50.9522 13.9764 51.3625 13.9806 51.7885C13.9806 52.215 14.1502 52.6242 14.4523 52.9268C14.7544 53.2293 15.1645 53.4007 15.5931 53.4035Z" fill="white"/>
<path d="M39.1315 42.8052C39.3921 42.8052 39.6561 42.8261 39.915 42.8261H65.1497C66.3984 42.8261 67.0123 43.2664 66.9913 44.147C66.9703 44.9997 66.3529 45.433 65.155 45.433C44.0517 45.433 22.9519 45.4365 1.85561 45.4435C1.05287 45.4435 0.416274 45.2572 -0.00695801 44.5524V43.6405C0.446005 42.9723 1.08085 42.8087 1.87485 42.8104C10.2765 42.8348 18.6782 42.8394 27.0799 42.8243C27.3404 42.8243 27.6045 42.8104 27.8616 42.8035L39.1315 42.8052Z" fill="white"/>
<path d="M17.0167 20.6292C17.1584 24.4578 13.7428 28.0775 9.47727 28.0253C7.50014 27.9874 5.61761 27.176 4.23727 25.767C2.85692 24.358 2.08987 22.4646 2.1022 20.4969C2.13718 18.5201 2.95692 16.6374 4.38236 15.2601C5.80781 13.8828 7.72311 13.1227 9.70987 13.146C13.5802 13.1826 17.1776 16.5117 17.0167 20.6292Z" fill="#00BBFC"/>
<path d="M49.9832 7.41535C49.7751 3.58676 53.3569 -0.0869332 57.5839 0.00182034C61.5504 0.0853531 64.9572 3.45277 64.8925 7.48496C64.888 8.46196 64.6896 9.42844 64.3089 10.329C63.9282 11.2296 63.3726 12.0465 62.674 12.733C61.9753 13.4195 61.1474 13.962 60.2376 14.3294C59.3278 14.6968 58.3541 14.8819 57.3723 14.8741C53.3324 14.8863 49.8171 11.4754 49.9832 7.41535Z" fill="#00BBFC"/>
<path d="M39.1314 42.8053H27.8685C27.837 42.4834 27.5187 42.4329 27.3299 42.2832C25.852 41.159 24.8814 39.7947 24.9828 37.8334C25.0668 36.2062 26.0042 35.0977 27.1864 34.1684C28.6188 33.0442 30.303 32.5343 32.1078 32.2941C34.1197 32.0309 36.1658 32.3135 38.0296 33.112C39.7295 33.8082 41.1251 34.9254 41.7757 36.7005C42.3983 38.3972 41.9506 39.9391 40.7771 41.2774C40.3896 41.7488 39.9234 42.1503 39.3989 42.4642C39.3286 42.4934 39.267 42.5401 39.2201 42.5998C39.1733 42.6596 39.1427 42.7304 39.1314 42.8053Z" fill="#00BBFC"/>
<path d="M34.782 27.0717C34.9973 25.8998 35.3103 24.7479 35.7176 23.6277C37.4217 18.6804 40.4528 14.2909 44.4831 10.9342C45.0567 10.4504 45.6374 10.3825 46.1603 10.7079C46.4012 10.8603 46.5857 11.0865 46.686 11.3524C46.7864 11.6183 46.797 11.9095 46.7164 12.1819C46.6027 12.5822 46.2914 12.8241 45.9941 13.0799C42.7807 15.8039 40.2753 19.2592 38.6908 23.1526C38.145 24.4964 37.7121 25.8829 37.3966 27.2979C37.1535 28.3716 36.1426 28.8189 35.3276 28.2516C34.9831 28.0114 34.7907 27.639 34.782 27.0717Z" fill="white"/>
<path d="M27.4646 29.3304C27.1603 29.3304 26.765 29.0868 26.522 28.6343C25.3094 26.3908 23.5871 24.46 21.4921 22.9959C21.3443 22.9012 21.218 22.7768 21.1213 22.6308C21.0246 22.4847 20.9596 22.3202 20.9304 22.1477C20.9013 21.9752 20.9087 21.7985 20.9521 21.629C20.9955 21.4595 21.074 21.3009 21.1826 21.1634C21.6286 20.5665 22.3683 20.4446 23.0347 20.9076C25.4506 22.5651 27.4262 24.7812 28.792 27.3657C29.2974 28.3037 28.7028 29.3165 27.4646 29.3304Z" fill="white"/>
</g>
<defs>
<clipPath id="clip0_20_72">
<rect width="67" height="56" fill="white"/>
</clipPath>
</defs>
</svg>
