<svg width="56" height="56" viewBox="0 0 56 56" fill="none" xmlns="http://www.w3.org/2000/svg">
<g clip-path="url(#clip0_20_21)">
<path d="M55.9985 49.1106V53.4849C55.81 53.843 55.6389 54.2157 55.4255 54.5548C54.9255 55.3571 54.1244 55.724 53.2648 56.0002H2.51588C2.4881 55.8541 2.35215 55.8731 2.26005 55.8365C0.751397 55.2417 0.00438562 54.1485 0 52.5174C0 51.6405 0 50.7636 0 49.8866C0 48.6502 0.312837 48.3111 1.54958 48.352C2.06709 48.3696 2.20304 48.2512 2.20158 47.7133C2.18258 36.4128 2.21766 25.1122 2.16211 13.8058C2.15188 11.596 3.64737 9.95324 5.96298 10.0322C8.78586 10.1301 11.6131 10.0555 14.4418 10.0541C14.6056 10.0541 14.8219 10.1082 14.9228 10.0249C15.4915 9.5557 16.1712 9.69016 16.8101 9.6507C17.1829 9.62732 17.3451 9.51186 17.522 9.16547C17.8144 8.58086 17.7749 8.17017 17.253 7.77848C17.058 7.61359 16.8837 7.42563 16.7341 7.21871C16.3218 6.70864 16.3218 6.16203 16.7808 5.69434C17.9679 4.48419 19.1671 3.28622 20.3785 2.10043C20.8288 1.66198 21.3682 1.66197 21.8609 2.05659C22.1352 2.26831 22.3909 2.50301 22.6254 2.75812C22.9178 3.08843 23.1765 3.1162 23.602 2.95689C24.1428 2.75374 24.387 2.48189 24.3197 1.90021C24.3048 1.60696 24.3215 1.31296 24.3694 1.02329C24.4323 0.406521 24.8226 0.000215978 25.4351 0.000215978C27.1485 -0.016348 28.8618 -0.016348 30.5751 0.000215978C31.1861 0.000215978 31.5735 0.415287 31.6291 1.0379C31.6686 1.47636 31.6963 1.91482 31.7007 2.35328C31.7007 2.59004 31.7767 2.71574 32.0136 2.77858C32.2237 2.83842 32.4256 2.92435 32.6144 3.03435C32.8425 3.16589 33.0018 3.12058 33.1816 2.93935C33.4886 2.62754 33.8116 2.33191 34.1494 2.05366C34.6186 1.67074 35.1566 1.65905 35.5864 2.07705C36.828 3.28427 38.0526 4.50806 39.2601 5.74841C39.6767 6.17518 39.6606 6.70864 39.2908 7.18802C39.1549 7.38297 38.9942 7.55935 38.8127 7.71271C38.2602 8.13655 38.133 8.59986 38.5028 9.2327C38.6563 9.49724 38.7674 9.63754 39.0876 9.64778C39.646 9.66678 40.2439 9.5674 40.7497 9.84801C41.0332 10.0013 41.3531 10.0746 41.6751 10.0599C44.5014 10.0599 47.3277 10.0599 50.154 10.0599C52.493 10.0599 53.8086 11.3753 53.8086 13.7138V47.6213C53.8086 48.3418 53.8086 48.3754 54.5147 48.3316C55.1916 48.2936 55.6798 48.5172 55.9985 49.1106ZM14.6377 15.5334C14.6377 14.6038 14.626 13.6743 14.667 12.7462C14.6845 12.3297 14.5603 12.242 14.1582 12.2449C11.407 12.2639 8.65576 12.2551 5.90305 12.2551C4.69846 12.2551 4.37539 12.5752 4.37539 13.7708C4.37539 25.0859 4.371 36.4011 4.36223 47.7163C4.36223 48.2483 4.48941 48.3608 5.00984 48.3579C10.4042 48.3359 15.797 48.3447 21.1913 48.3462C21.9427 48.3462 22.2687 48.5362 22.4865 49.1807C22.5626 49.4058 22.6576 49.4423 22.8608 49.4423C26.2874 49.4365 29.7131 49.4365 33.1378 49.4423C33.2635 49.4423 33.4301 49.5198 33.4813 49.2962C33.6611 48.4894 34.2444 48.3476 34.9709 48.3491C40.3287 48.3623 45.6865 48.3491 51.0516 48.3681C51.5208 48.3681 51.6451 48.2716 51.6436 47.7835C51.627 36.4498 51.6231 25.1161 51.6319 13.7824C51.6319 13.6553 51.6319 13.5281 51.6319 13.3995C51.6012 12.7155 51.1787 12.2741 50.4887 12.2712C47.5548 12.261 44.6208 12.2712 41.6883 12.261C41.4295 12.261 41.3418 12.3268 41.3476 12.5942C41.3681 13.5778 41.3652 14.5614 41.371 15.5451C41.3082 16.6865 41.064 16.9379 39.934 17.0183C39.681 17.0501 39.4258 17.0623 39.1709 17.0548C38.8011 17.0227 38.6709 17.201 38.4955 17.5108C38.152 18.1173 38.2704 18.5412 38.7879 18.9416C38.9388 19.0741 39.0764 19.2209 39.1987 19.3801C39.7089 19.9647 39.7103 20.5216 39.168 21.0696C38.0287 22.2243 36.8821 23.3715 35.7282 24.5115C35.1756 25.0567 34.6245 25.0567 34.0383 24.5452C33.88 24.4218 33.7332 24.2843 33.5997 24.1345C33.1992 23.6273 32.7737 23.4958 32.1671 23.8422C31.863 24.0175 31.6861 24.1345 31.7051 24.513C31.7118 24.896 31.6908 25.2789 31.6423 25.6588C31.5838 26.28 31.1949 26.6819 30.5824 26.6921C28.8691 26.7097 27.1558 26.7097 25.4424 26.6921C24.8328 26.6848 24.4425 26.2785 24.3826 25.6588C24.3362 25.2787 24.3152 24.8959 24.3197 24.513C24.3358 24.1432 24.1735 24.0146 23.8592 23.8392C23.2482 23.4929 22.8272 23.6332 22.4251 24.1315C22.2804 24.2956 22.1198 24.4449 21.9456 24.5773C21.3931 25.0392 20.8434 25.0406 20.3376 24.5408C19.1564 23.3774 17.984 22.2048 16.8203 21.0229C16.3218 20.5157 16.3262 19.9618 16.7969 19.4152C17.0703 19.098 17.3656 18.7984 17.6463 18.4886C17.7398 18.3848 17.8261 18.3044 17.7735 18.1144C17.5132 17.1834 17.4168 17.0914 16.4709 17.0373C16.3437 17.0373 16.2166 17.0212 16.0894 17.0124C14.9433 16.9247 14.7021 16.6777 14.6377 15.5334ZM39.1563 13.3542V12.9698C39.1563 11.8547 39.1563 11.8488 38.038 11.8079C37.4532 11.786 36.9986 11.5902 36.8173 10.9968C36.5779 10.2131 36.2631 9.4544 35.8773 8.7314C35.6609 8.32509 35.7384 7.93194 36.0016 7.5534C36.2647 7.17487 36.9299 6.90448 36.8144 6.45141C36.7091 6.04072 36.1741 5.73965 35.8276 5.39034C35.7896 5.35088 35.7516 5.31142 35.7121 5.27342C35.4197 4.99573 35.1595 4.53388 34.835 4.4915C34.5105 4.44911 34.2415 4.9548 33.9374 5.20911C33.4038 5.64757 33.0603 5.69726 32.4434 5.38888C32.053 5.19596 31.6715 4.92704 31.2578 4.84665C29.9421 4.59381 29.3179 3.88204 29.5167 2.52281C29.5547 2.26558 29.4377 2.17351 29.1761 2.18228C28.6483 2.19982 28.1191 2.18228 27.5914 2.18228C26.4979 2.18228 26.4979 2.18228 26.4541 3.27258C26.4234 4.03988 26.1836 4.34973 25.4673 4.58796C25.0536 4.72534 24.5902 4.81011 24.2496 5.0498C23.1429 5.81857 22.2278 5.64903 21.4208 4.61134C21.2396 4.37896 21.0861 4.43742 20.9063 4.63326C20.5846 4.98111 20.2396 5.30557 19.9063 5.64318C19.6373 5.91503 19.1988 6.16495 19.1535 6.47187C19.0994 6.82702 19.592 7.07256 19.8449 7.37071C20.3069 7.92171 20.3537 8.25932 20.0262 8.9097C19.8479 9.26632 19.6081 9.61562 19.5292 9.99708C19.2558 11.3125 18.5804 12.0432 17.1463 11.8123C16.9095 11.7728 16.8305 11.8927 16.8349 12.1265C16.8481 12.6541 16.8349 13.1832 16.8349 13.7108C16.8349 14.8245 16.8349 14.8304 17.9547 14.8727C18.5102 14.8932 18.9693 15.0657 19.1535 15.6342C19.4039 16.4313 19.7258 17.2042 20.1154 17.9434C20.3332 18.3512 20.2484 18.7443 19.9897 19.1243C19.7309 19.5043 19.0614 19.7689 19.1812 20.2263C19.2894 20.637 19.8215 20.9381 20.168 21.2874C20.206 21.3269 20.244 21.3649 20.2835 21.4029C20.5759 21.682 20.8375 22.1468 21.1606 22.1848C21.4837 22.2228 21.7585 21.7244 22.0597 21.4643C22.5713 21.0258 22.9368 20.9805 23.5522 21.2874C23.9426 21.4803 24.3241 21.7449 24.7393 21.8252C26.055 22.0825 26.6719 22.8001 26.4745 24.1564C26.4365 24.4195 26.5622 24.4999 26.8195 24.4925C27.3473 24.4765 27.8765 24.4925 28.4057 24.4925C29.4933 24.4925 29.4933 24.4925 29.5386 23.3993C29.5708 22.613 29.8105 22.3207 30.5824 22.0752C30.9625 21.9553 31.3762 21.8647 31.6963 21.6469C32.803 20.8928 33.7503 20.9761 34.5748 22.0606C34.756 22.2988 34.9095 22.2301 35.0879 22.0372C35.4095 21.6908 35.7545 21.3649 36.0863 21.0273C36.3553 20.7554 36.7939 20.5055 36.8407 20.1986C36.8948 19.842 36.4021 19.5964 36.1492 19.2983C35.6829 18.7429 35.6288 18.4213 35.9694 17.7637C36.3047 17.1385 36.5728 16.4796 36.769 15.7979C36.9152 15.2469 37.2851 14.9487 37.8611 14.883C38.285 14.8347 38.8698 15.0715 39.0934 14.7368C39.2981 14.4328 39.1475 13.8906 39.1534 13.4536L39.1563 13.3542ZM27.9422 53.8138H52.2094C52.3731 53.8138 52.5368 53.8138 52.7005 53.8138C53.354 53.7772 53.7823 53.3548 53.8013 52.6972C53.8203 52.0965 53.7926 51.4943 53.813 50.8936C53.8233 50.6013 53.7356 50.5282 53.449 50.5297C47.5275 50.5365 41.6054 50.5365 35.6829 50.5297C35.586 50.522 35.4888 50.5402 35.4013 50.5823C35.3137 50.6244 35.2389 50.689 35.1844 50.7694C34.977 51.0463 34.7057 51.2688 34.3936 51.4179C34.0815 51.5671 33.7378 51.6384 33.3921 51.6259H22.6181C22.2717 51.6393 21.9272 51.5688 21.6141 51.4201C21.3009 51.2715 21.0285 51.0492 20.82 50.7723C20.7661 50.6914 20.6917 50.6262 20.6044 50.5833C20.5171 50.5405 20.42 50.5215 20.323 50.5282C14.4014 50.5341 8.47935 50.5341 2.55682 50.5282C2.28052 50.5282 2.17088 50.5896 2.18696 50.8863C2.21181 51.3409 2.18696 51.7983 2.18696 52.2529C2.18696 53.4995 2.49688 53.8138 3.72339 53.8138H27.9422Z" fill="white"/>
<path d="M14.6378 15.5332C14.7021 16.6776 14.9433 16.9246 16.0748 17.0064C16.202 17.0152 16.3291 17.0254 16.4563 17.0313C17.4022 17.0853 17.4986 17.1774 17.7589 18.1084C17.8115 18.2984 17.7252 18.3788 17.6317 18.4826C17.351 18.7924 17.0557 19.092 16.7823 19.4092C16.3116 19.9558 16.3072 20.5097 16.8057 21.0169C17.9684 22.1988 19.1408 23.3714 20.323 24.5348C20.8303 25.0346 21.3799 25.0331 21.931 24.5713C22.1052 24.4389 22.2658 24.2896 22.4105 24.1255C22.8126 23.6242 23.2336 23.4839 23.8446 23.8332C24.156 24.0086 24.3212 24.1372 24.3051 24.507C24.3006 24.8899 24.3216 25.2727 24.368 25.6528C24.4279 26.2725 24.8182 26.6759 25.4279 26.6861C27.1412 26.7037 28.8545 26.7037 30.5678 26.6861C31.1803 26.6788 31.5692 26.274 31.6277 25.6528C31.6762 25.2729 31.6972 24.89 31.6905 24.507C31.6715 24.1343 31.8484 24.0115 32.1525 23.8362C32.7591 23.4868 33.1846 23.6184 33.5851 24.1285C33.7186 24.2783 33.8654 24.4157 34.0237 24.5392C34.6084 25.0507 35.161 25.0507 35.7136 24.5055C36.8685 23.3675 38.0151 22.2202 39.1534 21.0636C39.6957 20.5156 39.6943 19.9646 39.1841 19.3741C39.0618 19.2149 38.9242 19.0681 38.7733 18.9356C38.2602 18.5352 38.1418 18.1113 38.4809 17.5048C38.6563 17.1935 38.7864 17.0167 39.1563 17.0488C39.4112 17.0563 39.6664 17.044 39.9194 17.0123C41.0494 16.9319 41.2936 16.6805 41.3564 15.539C43.4893 15.539 45.6222 15.5522 47.755 15.5317C48.1936 15.5317 48.3486 15.6472 48.3471 16.1164C48.3354 25.5773 48.3354 35.0373 48.3471 44.4963C48.3471 44.948 48.2214 45.081 47.7624 45.081C34.584 45.0712 21.4048 45.0712 8.22452 45.081C7.76842 45.081 7.63977 44.945 7.63977 44.4963C7.65147 35.0373 7.65147 25.5773 7.63977 16.1164C7.63977 15.653 7.78596 15.5317 8.23329 15.5317C10.3735 15.5464 12.5063 15.5332 14.6378 15.5332ZM44.346 30.2026C44.3065 28.9749 43.6969 27.9328 42.4367 27.3526C41.2029 26.7841 40.0027 26.9331 38.9736 27.8349C37.921 28.7557 37.5819 29.9337 37.9503 31.2929C38.0175 31.537 38.1345 31.7313 37.8815 31.9725C36.5776 33.244 35.294 34.5389 34.0134 35.8353C33.9472 35.9184 33.8542 35.9761 33.7503 35.9984C33.6464 36.0208 33.5379 36.0066 33.4433 35.9581C32.7206 35.6809 31.9194 35.6887 31.2022 35.98C31.1156 36.0236 31.0169 36.0371 30.9217 36.0186C30.8264 36.0001 30.74 35.9505 30.676 35.8777C29.6039 34.8858 28.5295 33.9007 27.4525 32.9225C27.3644 32.8628 27.3009 32.7731 27.274 32.6701C27.2471 32.5671 27.2586 32.4579 27.3064 32.3627C27.4801 31.8791 27.513 31.3561 27.4014 30.8544C27.0695 29.2219 25.6968 28.0877 24.1136 28.1301C22.4646 28.1754 21.1402 29.3841 20.9341 31.0897C20.8902 31.4551 20.763 31.6159 20.4312 31.7401C19.4619 32.1011 18.4986 32.4884 17.5469 32.8947C17.4146 32.9654 17.2646 32.9958 17.1152 32.9823C16.9659 32.9688 16.8237 32.912 16.7063 32.8187C15.126 31.7562 12.9054 32.3408 12.0108 34.0303C11.71 34.6171 11.5922 35.2806 11.6725 35.9351C11.7527 36.5895 12.0274 37.2049 12.461 37.7017C12.8938 38.2007 13.4687 38.5557 14.1088 38.7189C14.7489 38.8822 15.4237 38.846 16.0426 38.6151C16.6718 38.3878 17.2144 37.97 17.5948 37.4199C17.9753 36.8697 18.1747 36.2147 18.1653 35.5459C18.155 35.1411 18.2442 34.9336 18.6389 34.7903C19.5613 34.4556 20.4662 34.0742 21.3755 33.7029C21.4665 33.6506 21.5726 33.6309 21.6763 33.6472C21.78 33.6634 21.875 33.7145 21.9457 33.7921C22.9573 34.6895 24.1253 34.9204 25.3971 34.4425C25.4985 34.3904 25.6145 34.3742 25.7263 34.3965C25.8381 34.4188 25.939 34.4783 26.0126 34.5652C26.9745 35.4582 27.9379 36.3483 28.9217 37.215C29.2404 37.4956 29.3603 37.7207 29.2141 38.1767C28.7945 39.4921 29.3778 40.9536 30.5532 41.7604C31.1074 42.1353 31.7648 42.3281 32.4338 42.3119C33.1027 42.2956 33.75 42.0712 34.2853 41.6697C35.4212 40.8031 35.9139 39.3313 35.4548 38.0159C35.3335 37.6754 35.4183 37.5015 35.6493 37.2735C36.885 36.0604 38.1091 34.8361 39.3215 33.6006C39.5525 33.3668 39.7323 33.3083 40.0714 33.415C42.1488 34.1049 44.3123 32.541 44.346 30.2026Z" fill="#00BBFC"/>
<path d="M44.346 30.2027C44.3123 32.5412 42.1532 34.105 40.0714 33.4181C39.7323 33.307 39.5525 33.3699 39.3215 33.6037C38.1081 34.8382 36.8841 36.0625 35.6493 37.2766C35.4183 37.5046 35.3335 37.6785 35.4548 38.019C35.9197 39.3212 35.4271 40.7959 34.2853 41.6728C33.75 42.0743 33.1027 42.2987 32.4338 42.315C31.7648 42.3312 31.1074 42.1384 30.5532 41.7635C29.3837 40.9625 28.7989 39.4981 29.2141 38.1798C29.3603 37.7238 29.2404 37.4987 28.9217 37.2181C27.9379 36.3514 26.9745 35.4643 26.0126 34.5683C25.939 34.4814 25.8381 34.4219 25.7263 34.3996C25.6145 34.3773 25.4985 34.3935 25.3972 34.4456C24.1253 34.9235 22.9573 34.6926 21.9457 33.7952C21.875 33.7176 21.78 33.6665 21.6763 33.6503C21.5726 33.634 21.4665 33.6537 21.3755 33.706C20.4663 34.0773 19.5614 34.4587 18.6389 34.7934C18.2442 34.9396 18.155 35.1442 18.1653 35.549C18.1747 36.2178 17.9753 36.8728 17.5948 37.423C17.2144 37.9731 16.6718 38.3909 16.0426 38.6182C15.4237 38.8491 14.7489 38.8853 14.1088 38.722C13.4687 38.5588 12.8938 38.2038 12.461 37.7048C12.0274 37.208 11.7527 36.5926 11.6725 35.9382C11.5922 35.2837 11.71 34.6202 12.0108 34.0334C12.9084 32.3439 15.126 31.7593 16.7063 32.8218C16.8237 32.9151 16.9659 32.9719 17.1152 32.9854C17.2646 32.9989 17.4146 32.9685 17.5469 32.8978C18.4986 32.4915 19.4619 32.1042 20.4312 31.7432C20.763 31.619 20.8902 31.4582 20.9341 31.0928C21.1402 29.3872 22.4646 28.1785 24.1136 28.1332C25.6968 28.0908 27.0695 29.225 27.4014 30.8575C27.513 31.3592 27.4801 31.8822 27.3064 32.3658C27.2586 32.461 27.2471 32.5702 27.274 32.6732C27.3009 32.7762 27.3644 32.8659 27.4525 32.9256C28.5343 33.8999 29.6088 34.885 30.676 35.8808C30.74 35.9536 30.8264 36.0032 30.9217 36.0217C31.0169 36.0402 31.1156 36.0267 31.2023 35.9831C31.9194 35.6918 32.7206 35.684 33.4433 35.9612C33.5379 36.0097 33.6464 36.0239 33.7503 36.0015C33.8542 35.9792 33.9472 35.9215 34.0134 35.8384C35.294 34.542 36.5776 33.2471 37.8816 31.9756C38.1345 31.7286 38.0175 31.5371 37.9503 31.296C37.576 29.9368 37.9152 28.7588 38.9736 27.838C39.9969 26.9362 41.2029 26.7872 42.4368 27.3557C43.6969 27.933 44.3065 28.9751 44.346 30.2027ZM32.3805 40.1207C32.6643 40.1074 32.9324 39.9868 33.1306 39.7832C33.3287 39.5797 33.4421 39.3085 33.4477 39.0246C33.4377 38.7432 33.3203 38.4763 33.1197 38.2787C32.919 38.0811 32.6504 37.9678 32.3688 37.962C32.2234 37.959 32.0789 37.986 31.9443 38.0413C31.8098 38.0965 31.688 38.1789 31.5867 38.2832C31.4854 38.3876 31.4066 38.5116 31.3553 38.6477C31.304 38.7838 31.2812 38.929 31.2885 39.0742C31.2984 39.3565 31.418 39.6237 31.622 39.8192C31.8259 40.0146 32.098 40.1228 32.3805 40.1207ZM24.2013 32.4842C24.3421 32.4844 24.4814 32.4566 24.6113 32.4025C24.7412 32.3483 24.8591 32.2689 24.958 32.1688C25.0569 32.0687 25.1349 31.9499 25.1874 31.8194C25.24 31.6889 25.2661 31.5492 25.2641 31.4085C25.2609 31.1251 25.1484 30.8539 24.9502 30.6514C24.7519 30.4488 24.4832 30.3305 24.1999 30.3211C23.9067 30.325 23.6269 30.4442 23.4211 30.653C23.2153 30.8617 23.1001 31.1432 23.1005 31.4363C23.1101 31.7203 23.2308 31.9893 23.4367 32.1852C23.6425 32.3812 23.9171 32.4886 24.2013 32.4842ZM40.01 30.327C40.0077 30.4676 40.0336 30.6072 40.0863 30.7375C40.139 30.8678 40.2175 30.9862 40.3169 31.0857C40.4163 31.1851 40.5348 31.2635 40.6651 31.3162C40.7955 31.3689 40.9351 31.3948 41.0758 31.3924C41.221 31.3944 41.3652 31.3666 41.4992 31.3106C41.6333 31.2547 41.7545 31.1718 41.8552 31.0671C41.9559 30.9624 42.0341 30.8382 42.0848 30.7021C42.1356 30.566 42.1578 30.4209 42.1502 30.2758C42.14 29.9924 42.0195 29.7242 41.8145 29.5282C41.6094 29.3323 41.336 29.224 41.0524 29.2264C40.7685 29.2352 40.4997 29.3559 40.3044 29.562C40.1092 29.7682 40.0033 30.0432 40.01 30.327ZM15.9958 35.571C16.0029 35.4309 15.9819 35.2908 15.934 35.1591C15.886 35.0273 15.8122 34.9064 15.7169 34.8035C15.6215 34.7007 15.5065 34.618 15.3787 34.5603C15.2508 34.5026 15.1128 34.471 14.9725 34.4675C14.8273 34.4602 14.682 34.483 14.546 34.5344C14.4099 34.5858 14.2859 34.6647 14.1817 34.7663C14.0776 34.8678 13.9955 34.9897 13.9407 35.1244C13.8858 35.2591 13.8594 35.4036 13.863 35.549C13.8614 35.8327 13.9718 36.1056 14.1702 36.3083C14.3687 36.5111 14.6391 36.6274 14.9228 36.632C15.2055 36.6324 15.4769 36.5211 15.6779 36.3224C15.8789 36.1236 15.9931 35.8536 15.9958 35.571Z" fill="white"/>
<path d="M27.8137 6.83119C31.4157 6.64996 34.3716 9.40933 34.5544 13.1158C34.7254 16.6015 31.8645 19.7409 28.3765 19.8973C24.7525 20.058 21.6299 17.2928 21.4457 13.7588C21.2484 9.95594 23.9382 7.0285 27.8137 6.83119ZM28.0388 8.97379C25.6442 8.95772 23.6429 10.9059 23.6268 13.2663C23.6108 15.767 25.5024 17.6904 27.9876 17.6991C30.4465 17.7079 32.3425 15.8254 32.3732 13.3438C32.401 10.9878 30.4216 8.99133 28.0388 8.97526V8.97379Z" fill="white"/>
<path d="M32.3805 40.1205C32.0961 40.124 31.8216 40.0157 31.6162 39.8189C31.4109 39.6221 31.2911 39.3525 31.2827 39.0682C31.2762 38.9229 31.2997 38.7778 31.3517 38.642C31.4038 38.5062 31.4832 38.3826 31.5851 38.2788C31.687 38.175 31.8091 38.0933 31.944 38.0388C32.0788 37.9842 32.2234 37.958 32.3688 37.9618C32.6524 37.9662 32.9234 38.0796 33.1254 38.2786C33.3274 38.4776 33.4449 38.7468 33.4535 39.0302C33.4464 39.3141 33.3315 39.5846 33.1323 39.7871C32.9331 39.9895 32.6643 40.1087 32.3805 40.1205Z" fill="#00BBFC"/>
<path d="M24.2014 32.4839C23.9172 32.4882 23.6426 32.3809 23.4367 32.1849C23.2308 31.9889 23.1101 31.72 23.1006 31.4359C23.1002 31.1428 23.2154 30.8614 23.4212 30.6526C23.627 30.4439 23.9068 30.3246 24.1999 30.3208C24.4832 30.3302 24.752 30.4485 24.9502 30.651C25.1485 30.8536 25.2609 31.1248 25.2642 31.4082C25.2661 31.5489 25.24 31.6885 25.1875 31.8191C25.1349 31.9496 25.0569 32.0684 24.958 32.1685C24.8591 32.2686 24.7413 32.348 24.6114 32.4022C24.4815 32.4563 24.3421 32.4841 24.2014 32.4839Z" fill="#00BBFC"/>
<path d="M40.0101 30.3267C40.0034 30.0428 40.1092 29.7679 40.3044 29.5617C40.4997 29.3555 40.7685 29.2349 41.0524 29.2261C41.336 29.2236 41.6095 29.3319 41.8145 29.5279C42.0195 29.7239 42.14 29.9921 42.1503 30.2755C42.1579 30.4206 42.1356 30.5656 42.0849 30.7017C42.0341 30.8378 41.956 30.9621 41.8552 31.0668C41.7545 31.1715 41.6333 31.2543 41.4993 31.3103C41.3652 31.3663 41.2211 31.3941 41.0758 31.3921C40.9352 31.3945 40.7955 31.3685 40.6652 31.3158C40.5348 31.2631 40.4164 31.1847 40.3169 31.0853C40.2175 30.9859 40.1391 30.8675 40.0864 30.7372C40.0336 30.6068 40.0077 30.4672 40.0101 30.3267Z" fill="#00BBFC"/>
<path d="M15.9959 35.5706C15.9932 35.8542 15.8781 36.1252 15.6758 36.3241C15.4736 36.523 15.2007 36.6336 14.917 36.6317C14.6333 36.6271 14.3628 36.5107 14.1644 36.308C13.966 36.1052 13.8556 35.8323 13.8571 35.5487C13.8535 35.4033 13.88 35.2587 13.9348 35.124C13.9897 34.9894 14.0718 34.8674 14.1759 34.7659C14.2801 34.6644 14.4041 34.5854 14.5401 34.534C14.6762 34.4826 14.8214 34.4599 14.9667 34.4671C15.1074 34.4699 15.2461 34.5009 15.3747 34.5583C15.5032 34.6156 15.6189 34.6982 15.7148 34.8011C15.8108 34.9041 15.8852 35.0252 15.9334 35.1574C15.9817 35.2895 16.0029 35.4301 15.9959 35.5706Z" fill="#00BBFC"/>
</g>
<defs>
<clipPath id="clip0_20_21">
<rect width="56" height="56" fill="white"/>
</clipPath>
</defs>
</svg>
