<svg width="66" height="56" viewBox="0 0 66 56" fill="none" xmlns="http://www.w3.org/2000/svg">
<g clip-path="url(#clip0_20_81)">
<path d="M5.75922e-05 3.74162C0.20852 3.67265 0.172311 3.46229 0.227441 3.31573C0.951031 1.24664 2.66007 0.00518799 4.86874 0.00346375C10.0258 -0.00343323 15.1822 -0.00343323 20.3381 0.00346375H60.8126C64.0325 0.00346375 66 1.96221 66 5.1762C66 18.2494 66 31.3226 66 44.3958C66 47.5616 64.0188 49.5462 60.8574 49.5479H40.1627C40.7123 50.8152 41.2395 52.0049 41.7408 53.205C41.8786 53.5309 42.1302 53.4171 42.3386 53.4188C44.8321 53.4257 47.3245 53.4257 49.8158 53.4188C50.4532 53.4188 50.9562 53.6102 51.2198 54.2258C51.2971 54.4097 51.3302 54.6093 51.3164 54.8083C51.3026 55.0074 51.2423 55.2005 51.1405 55.372C51.0386 55.5436 50.898 55.6888 50.7298 55.7961C50.5617 55.9034 50.3707 55.9697 50.1723 55.9897C49.958 56.0066 49.7428 56.0107 49.528 56.0017H16.4634C16.2911 56.0017 16.1188 56.0017 15.9466 56.0017C15.2023 55.9552 14.6889 55.4327 14.6854 54.7223C14.6799 54.5551 14.7081 54.3885 14.7683 54.2324C14.8285 54.0763 14.9196 53.934 15.036 53.8139C15.1525 53.6939 15.2919 53.5985 15.446 53.5336C15.6 53.4687 15.7656 53.4355 15.9328 53.4361C16.8545 53.4067 17.7797 53.4257 18.7031 53.4257C20.357 53.4257 22.0127 53.4119 23.6666 53.4343C23.8206 53.4563 23.9774 53.4209 24.107 53.3347C24.2366 53.2486 24.33 53.1177 24.3695 52.9671C24.826 51.8411 25.3222 50.7255 25.8322 49.5496H5.26328C2.58944 49.5496 1.10265 48.5151 0.151647 45.9908C0.120636 45.908 0.0999381 45.8287 -0.00170898 45.8183L5.75922e-05 3.74162ZM33.0009 2.5812H5.15821C3.3768 2.5812 2.57396 3.38815 2.57396 5.18826C2.57396 18.2408 2.57396 31.2927 2.57396 44.3441C2.57396 46.1373 3.38197 46.9581 5.15821 46.9581H60.8419C62.6112 46.9581 63.4261 46.1356 63.4261 44.3441V5.18998C63.4261 3.38987 62.625 2.5812 60.8419 2.5812H33.0009ZM39.0308 53.4154C38.4743 52.1291 37.9609 50.9549 37.463 49.7738C37.3665 49.5427 37.2029 49.5375 37.003 49.5375C34.3418 49.5375 31.6795 49.5375 29.016 49.5375C28.8558 49.5375 28.6714 49.4893 28.5836 49.71C28.0667 50.9169 27.5361 52.1239 26.983 53.4136H39.0308V53.4154Z" fill="white"/>
<path d="M33.0009 11.2215C36.9531 11.2215 40.907 11.2335 44.8592 11.2215C50.2775 11.199 54.8637 15.3596 55.5683 20.6306C56.0852 24.4412 54.9205 27.7 52.1364 30.2864C49.6538 32.5917 46.6544 33.5159 43.2449 33.0607C40.8667 32.7565 38.6589 31.6639 36.9738 29.9571C35.7971 28.8155 34.9196 27.4013 34.4188 25.8396C34.2844 25.4154 34.0742 25.3378 33.6487 25.2792C32.3394 25.1068 31.6984 25.5172 31.1334 26.831C29.6845 30.2157 26.928 32.2848 23.3272 32.9745C19.9798 33.6245 16.9114 32.8331 14.2565 30.6071C11.3415 28.1604 10.0545 24.9844 10.3457 21.26C10.5319 18.7977 11.5508 16.4724 13.2344 14.6674C14.9181 12.8623 17.166 11.6852 19.6076 11.3301C20.1155 11.2571 20.6279 11.2208 21.1409 11.2215C25.0954 11.2192 29.0487 11.2192 33.0009 11.2215ZM20.9601 16.4994C20.2123 16.4994 19.4718 16.647 18.7812 16.9338C18.0905 17.2206 17.4631 17.641 16.935 18.1708C16.4069 18.7006 15.9884 19.3295 15.7035 20.0215C15.4186 20.7134 15.2729 21.4548 15.2747 22.2032C15.2788 23.7036 15.8748 25.1417 16.9331 26.2044C17.9915 27.2672 19.4264 27.8686 20.9256 27.8776C22.4355 27.8813 23.8855 27.2864 24.9584 26.223C26.0312 25.1596 26.6396 23.7143 26.6505 22.2032C26.6505 20.6919 26.0513 19.2424 24.9844 18.173C23.9174 17.1036 22.4701 16.5016 20.9601 16.4994ZM49.354 22.2411C49.354 21.5514 48.8251 21.0238 48.0723 20.9651C47.6674 20.9324 47.1488 21.0841 46.8801 20.8841C46.5493 20.6358 46.7974 20.0806 46.7526 19.6616C46.6699 18.8702 46.141 18.3322 45.4329 18.3477C44.7248 18.3633 44.2269 18.9064 44.1735 19.7099C44.1098 20.8789 44.1098 20.8789 42.9227 20.9565C42.113 21.01 41.5789 21.5066 41.5599 22.2221C41.541 22.9377 42.0957 23.4877 42.9382 23.5412C44.1132 23.6153 44.1132 23.6153 44.1821 24.8033C44.2269 25.5999 44.7438 26.1482 45.4536 26.1534C46.1634 26.1586 46.6871 25.6172 46.7578 24.8223C46.7939 24.4205 46.5854 23.9153 46.8559 23.6412C47.1264 23.367 47.6312 23.5757 48.0326 23.5395C48.8217 23.467 49.3592 22.9498 49.354 22.2411ZM33.0199 20.5686C33.4489 20.5686 33.8813 20.6031 34.3051 20.5686C34.631 20.5542 34.9382 20.4125 35.1608 20.174C35.3834 19.9354 35.5036 19.619 35.4956 19.2926C35.5009 19.1301 35.4737 18.9681 35.4157 18.8162C35.3576 18.6643 35.2698 18.5255 35.1575 18.408C35.0452 18.2904 34.9106 18.1965 34.7616 18.1317C34.6125 18.0669 34.4521 18.0325 34.2896 18.0305C33.4282 17.9874 32.5754 17.9874 31.7191 18.0305C31.5575 18.0314 31.3976 18.0643 31.2486 18.1272C31.0997 18.1902 30.9646 18.282 30.8513 18.3974C30.7379 18.5127 30.6485 18.6494 30.5881 18.7995C30.5277 18.9496 30.4975 19.1101 30.4994 19.2719C30.4834 19.5982 30.5971 19.9175 30.8157 20.1602C31.0342 20.4028 31.3398 20.549 31.6657 20.5668C32.1171 20.6048 32.5702 20.5686 33.0199 20.5686Z" fill="#00BBFC"/>
<path d="M33.0061 40.6181H55.489C55.7251 40.6181 55.9628 40.6077 56.1971 40.6301C56.4997 40.6524 56.7841 40.7836 56.9975 40.9995C57.211 41.2153 57.3391 41.5013 57.3583 41.8043C57.3815 42.0959 57.3017 42.3863 57.133 42.6252C56.9643 42.864 56.7173 43.036 56.4349 43.1113C56.1852 43.1726 55.9286 43.2004 55.6717 43.1941C40.5544 43.1941 25.4365 43.1941 10.3181 43.1941C10.0616 43.1999 9.80553 43.1715 9.55658 43.1096C9.27441 43.0317 9.02848 42.8571 8.86164 42.6164C8.6948 42.3757 8.61764 42.0841 8.64351 41.7923C8.66566 41.4898 8.79619 41.2054 9.01113 40.9916C9.22606 40.7778 9.51094 40.6488 9.81332 40.6284C10.0493 40.6077 10.2854 40.6181 10.5214 40.6181H33.0061Z" fill="white"/>
<path d="M20.96 16.4993C22.4691 16.5029 23.9152 17.1055 24.981 18.1747C26.0468 19.244 26.6454 20.6927 26.6454 22.2031C26.6344 23.7142 26.026 25.1595 24.9531 26.2229C23.8803 27.2863 22.4303 27.8812 20.9203 27.8776C19.4212 27.8685 17.9863 27.2671 16.9279 26.2044C15.8696 25.1416 15.2735 23.7035 15.2695 22.2031C15.2677 21.4543 15.4135 20.7124 15.6988 20.0202C15.984 19.3279 16.403 18.6988 16.9316 18.1689C17.4603 17.639 18.0882 17.2187 18.7795 16.9322C19.4708 16.6457 20.2118 16.4986 20.96 16.4993ZM20.96 25.2929C21.7839 25.2925 22.5742 24.9659 23.1584 24.3844C23.7426 23.803 24.0733 23.0139 24.0783 22.1893C24.0738 21.3675 23.7456 20.5807 23.165 19.9997C22.5844 19.4186 21.7983 19.0902 20.9772 19.0856C20.5691 19.0827 20.1645 19.1609 19.787 19.3158C19.4094 19.4707 19.0663 19.6992 18.7778 19.988C18.4892 20.2768 18.2609 20.6201 18.1061 20.998C17.9513 21.3759 17.8731 21.7809 17.8761 22.1893C17.8736 22.5958 17.9514 22.9989 18.1049 23.3753C18.2584 23.7517 18.4847 24.0941 18.7707 24.3827C19.0568 24.6714 19.3969 24.9007 19.7717 25.0575C20.1465 25.2143 20.5486 25.2955 20.9548 25.2964L20.96 25.2929Z" fill="white"/>
<path d="M49.354 22.241C49.354 22.9497 48.8216 23.467 48.0257 23.5394C47.6243 23.5756 47.1177 23.367 46.849 23.6411C46.5802 23.9153 46.787 24.4205 46.7508 24.8222C46.6802 25.6171 46.153 26.1585 45.4466 26.1533C44.7402 26.1482 44.22 25.5998 44.1752 24.8032C44.1063 23.6152 44.1062 23.6152 42.9313 23.5411C42.0957 23.4876 41.5409 22.9531 41.553 22.2221C41.565 21.491 42.106 21.0151 42.9158 20.9565C44.1028 20.8789 44.1028 20.8789 44.1666 19.7098C44.2113 18.9063 44.7144 18.3615 45.426 18.3477C46.1375 18.3339 46.6629 18.8649 46.7456 19.6615C46.7904 20.0805 46.5423 20.6358 46.8731 20.884C47.1419 21.0841 47.6604 20.9323 48.0653 20.9651C48.8251 21.0237 49.3488 21.5565 49.354 22.241Z" fill="white"/>
<path d="M33.0199 20.5685C32.5702 20.5685 32.1171 20.6048 31.6726 20.5685C31.3467 20.5507 31.0411 20.4045 30.8225 20.1619C30.604 19.9192 30.4903 19.5999 30.5062 19.2736C30.5044 19.1118 30.5346 18.9513 30.595 18.8012C30.6554 18.6511 30.7448 18.5144 30.8582 18.3991C30.9715 18.2837 31.1065 18.1919 31.2555 18.1289C31.4044 18.066 31.5643 18.0331 31.726 18.0322C32.5874 17.9925 33.4488 17.9925 34.2965 18.0322C34.459 18.0342 34.6194 18.0686 34.7684 18.1334C34.9175 18.1982 35.0521 18.2921 35.1644 18.4097C35.2767 18.5272 35.3645 18.666 35.4225 18.8179C35.4805 18.9698 35.5077 19.1318 35.5025 19.2943C35.5104 19.6206 35.3902 19.9371 35.1676 20.1757C34.945 20.4142 34.6378 20.5559 34.312 20.5703C33.8882 20.6116 33.4505 20.5703 33.0267 20.5703L33.0199 20.5685Z" fill="white"/>
<path d="M20.9548 25.2963C20.5468 25.2972 20.1427 25.2172 19.7659 25.0608C19.389 24.9044 19.0469 24.6748 18.7593 24.3852C18.4717 24.0956 18.2444 23.7518 18.0904 23.3737C17.9364 22.9955 17.8589 22.5906 17.8623 22.1823C17.8593 21.7739 17.9375 21.369 18.0923 20.9911C18.2471 20.6132 18.4754 20.2699 18.764 19.9811C19.0525 19.6923 19.3955 19.4638 19.7731 19.3089C20.1507 19.154 20.5553 19.0757 20.9634 19.0787C21.7845 19.0832 22.5706 19.4117 23.1512 19.9927C23.7318 20.5738 24.06 21.3606 24.0645 22.1823C24.0622 23.0072 23.7339 23.7977 23.1513 24.3811C22.5687 24.9646 21.779 25.2936 20.9548 25.2963Z" fill="#00BBFC"/>
</g>
<defs>
<clipPath id="clip0_20_81">
<rect width="66" height="56" fill="white"/>
</clipPath>
</defs>
</svg>
