<svg width="56" height="56" viewBox="0 0 56 56" fill="none" xmlns="http://www.w3.org/2000/svg">
<g clip-path="url(#clip0_20_14)">
<path d="M55.9883 0C55.9883 5.73872 55.9883 11.4774 56 17.2176C56 17.7307 55.8538 17.8491 55.3597 17.8462C52.4448 17.8242 49.5299 17.8462 46.6165 17.8257C46.2006 17.8148 45.7944 17.9521 45.4704 18.2131C43.5466 19.6748 41.6097 21.1248 39.6757 22.5763C39.5748 22.6523 39.4637 22.7137 39.3541 22.7824C39.1816 22.6771 39.262 22.5164 39.262 22.3892C39.262 21.04 39.2415 19.6923 39.262 18.3446C39.2707 17.9265 39.1348 17.8242 38.7328 17.8272C35.7638 17.8418 32.7948 17.8272 29.8258 17.8462C29.3361 17.8462 29.1826 17.7321 29.1841 17.2176C29.2016 11.4774 29.1943 5.73872 29.1929 0H55.9883ZM38.9097 7.84944C38.3732 7.84944 38.0326 8.06432 37.844 8.48384C37.6247 8.95743 37.7475 9.37694 38.0984 9.73214C38.8663 10.5117 39.6392 11.2855 40.4169 12.0534C41.0571 12.6892 41.6228 12.6965 42.2573 12.0694C43.0496 11.2889 43.8302 10.4981 44.6167 9.71168C45.4412 8.88727 46.2759 8.07308 47.0872 7.23406C47.6412 6.65814 47.5637 5.88343 46.941 5.49608C46.4791 5.20373 45.9367 5.29582 45.4646 5.76503C44.1854 7.03819 42.9063 8.30989 41.6419 9.59767C41.4138 9.82862 41.2822 9.87393 41.0439 9.60935C40.6156 9.13722 40.1464 8.70309 39.6976 8.24996C39.4652 8.00877 39.1977 7.83483 38.9097 7.84944Z" fill="#00BBFC"/>
<path d="M0 30.078C1.18896 28.0403 2.37644 26.0022 3.56247 23.9636C4.12967 22.9871 4.54921 22.8497 5.56372 23.3248C6.27125 23.6566 6.9817 23.984 7.67899 24.3349C7.92019 24.4562 8.08392 24.4591 8.29881 24.2705C9.83714 22.9228 11.6252 21.8903 13.5614 21.2316C13.6658 21.2099 13.7588 21.1509 13.8228 21.0656C13.8869 20.9803 13.9176 20.8746 13.9094 20.7682C13.9634 19.8912 14.0468 19.0259 14.1198 18.1547C14.1856 17.3917 14.5891 16.9853 15.3507 16.9765C17.6838 16.9648 20.0164 16.9648 22.3485 16.9765C23.1175 16.9765 23.5063 17.3522 23.5896 18.1459C23.6803 19.0156 23.749 19.8868 23.806 20.7595C23.8235 21.0387 23.9317 21.1541 24.1992 21.2477C26.0962 21.9028 27.8492 22.9172 29.3624 24.2355C29.6109 24.4518 29.801 24.4591 30.0743 24.3188C30.8213 23.9431 31.5815 23.5967 32.3402 23.2429C33.0989 22.8892 33.6032 23.0412 34.0315 23.7765C35.1815 25.7586 36.3281 27.7426 37.4712 29.7286C37.8849 30.4492 37.7753 30.936 37.0984 31.4227C36.4216 31.9095 35.7623 32.3699 35.0767 32.8187C34.7698 33.0204 34.6645 33.206 34.7405 33.608C35.1128 35.5461 35.1079 37.5377 34.7259 39.4739C34.6659 39.775 34.7259 39.9329 34.973 40.098C35.6717 40.5585 36.3558 41.0438 37.04 41.5262C37.7826 42.0494 37.8952 42.5157 37.4508 43.2919C36.3183 45.2623 35.181 47.2308 34.0388 49.1973C33.6003 49.9617 33.1106 50.1079 32.3051 49.7337C31.5464 49.3814 30.7877 49.0306 30.0393 48.6594C29.801 48.5424 29.6343 48.5132 29.4107 48.7149C27.8742 50.0613 26.0888 51.0937 24.1554 51.7538C24.0518 51.7774 23.96 51.8369 23.8961 51.9217C23.8321 52.0065 23.8002 52.1112 23.806 52.2172C23.7563 53.0167 23.6744 53.8148 23.613 54.6129C23.5326 55.6712 23.1862 56.0016 22.141 56.003C19.919 56.003 17.696 56.003 15.472 56.003C14.5613 56.003 14.1798 55.6332 14.114 54.7357C14.0511 53.8821 13.9576 53.0299 13.9079 52.1748C13.9121 52.0775 13.8812 51.9818 13.8208 51.9054C13.7605 51.8289 13.6746 51.7767 13.579 51.7582C11.6256 51.0976 9.82354 50.054 8.27836 48.6886C8.07078 48.5073 7.90998 48.5424 7.69362 48.652C6.92762 49.0277 6.15284 49.3829 5.37806 49.7469C4.60329 50.1108 4.10921 49.9501 3.68236 49.2148C2.55967 47.2809 1.44721 45.3398 0.320133 43.4059C0.233885 43.2598 0.198777 43.0566 0.00289084 42.9849V42.219C0.220918 41.8894 0.507033 41.6103 0.841983 41.4004C1.47642 40.978 2.09041 40.5234 2.72631 40.1039C2.96897 39.9431 3.04645 39.7969 2.98213 39.4885C2.67807 38.0019 2.66637 36.4964 2.75847 34.985C2.79793 34.3418 3.2248 33.6066 2.91782 33.0964C2.61083 32.5863 1.86381 32.3041 1.31854 31.9109C0.840523 31.566 0.28064 31.3087 0.00289084 30.7416L0 30.078ZM18.8401 53.8105C19.571 53.8105 20.302 53.7915 21.0329 53.8192C21.3823 53.8338 21.5109 53.7242 21.5284 53.3807C21.5664 52.6352 21.6381 51.8912 21.6907 51.1457C21.736 50.5114 22.0371 50.1108 22.6701 49.931C24.9058 49.3033 26.9467 48.1213 28.6037 46.4945C29.0525 46.056 29.5364 45.9902 30.0963 46.2636C30.7979 46.6071 31.5142 46.9184 32.213 47.2663C32.4571 47.3877 32.5784 47.3789 32.7232 47.1202C33.4658 45.8056 34.222 44.4998 34.9919 43.2027C35.1615 42.9177 35.0723 42.8037 34.8458 42.6502C34.2099 42.2263 33.5959 41.7732 32.9571 41.3507C32.4498 41.0204 32.2627 40.5804 32.3869 39.9972C32.4571 39.6595 32.5331 39.3248 32.6018 38.9842C32.9614 37.0255 32.8941 35.0122 32.4045 33.0818C32.2495 32.4679 32.4132 31.984 32.9673 31.6201C33.6236 31.1932 34.2508 30.724 34.9028 30.2914C35.1162 30.1452 35.144 30.0356 35.0124 29.8119C34.2391 28.4964 33.4702 27.1808 32.7246 25.8433C32.5711 25.5685 32.4323 25.6022 32.2145 25.7118C31.5469 26.0412 30.8744 26.3618 30.1971 26.6736C29.4384 27.0259 29.1373 26.9791 28.5321 26.4061C26.9082 24.8527 24.9357 23.7108 22.7798 23.0763C21.9597 22.8337 21.7565 22.5852 21.6892 21.7257C21.6278 20.9948 21.5708 20.2727 21.527 19.5463C21.5094 19.2539 21.4027 19.1457 21.0884 19.1501C19.6134 19.1647 18.1385 19.1691 16.662 19.1501C16.2878 19.1501 16.2103 19.2875 16.1927 19.6208C16.1518 20.3853 16.0553 21.1454 16.0085 21.9084C15.972 22.5223 15.6533 22.8834 15.0847 23.0442C12.8318 23.6752 10.7748 24.8648 9.10428 26.5026C8.65696 26.9411 8.1731 26.9996 7.61029 26.7116C6.91446 26.3564 6.19231 26.0538 5.49648 25.7016C5.23481 25.5685 5.12811 25.6314 4.99508 25.8667C4.25149 27.1794 3.49719 28.4861 2.73216 29.7871C2.58598 30.0326 2.61376 30.1525 2.84912 30.3089C3.51571 30.7474 4.16474 31.2225 4.82549 31.6741C5.04758 31.8053 5.21902 32.0075 5.31211 32.248C5.4052 32.4886 5.41452 32.7534 5.33859 32.9999C4.75458 35.2869 4.75458 37.6839 5.33859 39.9709C5.41677 40.2169 5.40982 40.4821 5.31885 40.7237C5.22789 40.9652 5.05822 41.1691 4.83719 41.3025C4.17498 41.7542 3.52153 42.2205 2.85932 42.6663C2.64443 42.8125 2.56697 42.9192 2.72485 43.1823C3.49475 44.4803 4.24905 45.7876 4.98776 47.1041C5.14564 47.3833 5.28014 47.3847 5.54327 47.2502C6.24203 46.8994 6.95832 46.5866 7.66 46.2431C8.18042 45.9888 8.64965 46.0356 9.06481 46.439C10.778 48.111 12.8836 49.3263 15.1885 49.9734C15.6986 50.1196 15.9632 50.4777 16.0042 51.0127C16.0641 51.7933 16.1503 52.5724 16.1942 53.3515C16.2132 53.6891 16.2936 53.8295 16.6649 53.8134C17.3783 53.7885 18.1092 53.8105 18.8401 53.8105Z" fill="white"/>
<path d="M38.9097 7.84946C39.2021 7.83484 39.4652 8.00879 39.7035 8.24997C40.1523 8.7031 40.6215 9.13723 41.0498 9.60937C41.2881 9.87394 41.4197 9.82863 41.6477 9.59768C42.9122 8.3099 44.1913 7.0382 45.4704 5.76504C45.9426 5.29583 46.4849 5.20521 46.9469 5.49609C47.5638 5.88345 47.6412 6.65815 47.0931 7.23407C46.2817 8.0731 45.447 8.88728 44.6225 9.71169C43.8361 10.4981 43.0555 11.2889 42.2631 12.0694C41.6287 12.6965 41.063 12.6892 40.4227 12.0534C39.643 11.2826 38.8702 10.5088 38.1042 9.73216C37.7534 9.37696 37.6306 8.95745 37.8499 8.48385C38.0384 8.06434 38.3732 7.84946 38.9097 7.84946Z" fill="white"/>
<path d="M18.8314 47.0616C17.4407 47.0606 16.0638 46.7849 14.78 46.2501C13.4962 45.7154 12.3308 44.9323 11.3507 43.9457C10.3706 42.9591 9.59508 41.7886 9.06884 40.5014C8.5426 39.2142 8.27596 37.8357 8.28424 36.4451C8.28921 35.0547 8.56867 33.6789 9.1066 32.3968C9.64453 31.1146 10.4303 29.9512 11.4189 28.9734C12.4076 27.9956 13.5795 27.2226 14.8675 26.6988C16.1556 26.1749 17.5345 25.9105 18.925 25.9207C21.7241 25.9408 24.4011 27.07 26.3689 29.0607C28.3368 31.0514 29.4348 33.7411 29.4224 36.5401C29.4104 39.3388 28.2885 42.0184 26.3029 43.9909C24.3174 45.9635 21.6303 47.0678 18.8314 47.0616ZM18.8402 44.869C21.0594 44.8729 23.1896 43.9963 24.7633 42.4315C26.3369 40.8667 27.2255 38.7417 27.234 36.5226C27.239 35.4194 27.0261 34.3261 26.6076 33.3053C26.189 32.2846 25.573 31.3566 24.7949 30.5745C24.0168 29.7924 23.0919 29.1716 22.0733 28.7477C21.0547 28.3238 19.9624 28.1053 18.8591 28.1045C16.6399 28.1002 14.5098 28.9774 12.9372 30.543C11.3645 32.1087 10.478 34.2348 10.4726 36.4539C10.4651 37.5572 10.676 38.6511 11.0932 39.6726C11.5104 40.694 12.1256 41.6228 12.9034 42.4055C13.6812 43.1881 14.6062 43.8091 15.6252 44.2327C16.6441 44.6562 17.7367 44.874 18.8402 44.8734V44.869Z" fill="white"/>
<path d="M18.8694 42.7816C18.3241 42.7889 17.8227 42.4483 17.8081 41.8958C17.7934 41.3433 17.4879 41.1781 17.0655 41.01C16.491 40.7805 16.2176 40.2792 16.3346 39.7602C16.3659 39.6077 16.4294 39.4637 16.521 39.3378C16.6125 39.2118 16.7298 39.1069 16.8652 39.0299C17.0005 38.953 17.1508 38.9058 17.3058 38.8916C17.4608 38.8774 17.6171 38.8965 17.7642 38.9475C17.9557 39.0031 18.1341 39.101 18.3241 39.1639C18.7875 39.3188 19.2012 39.1478 19.362 38.74C19.5228 38.3321 19.3708 37.936 18.9117 37.7168C18.6194 37.5706 18.3124 37.4551 18.0098 37.3309C16.8827 36.8646 16.2147 36.0153 16.0992 34.8167C15.9837 33.6181 16.4617 32.6709 17.4791 32.0394C17.7934 31.845 17.7291 31.6009 17.7481 31.3407C17.8139 30.4637 18.5726 29.955 19.3079 30.3058C19.7041 30.4944 19.9409 30.816 19.9204 31.2559C19.9043 31.6155 20.0476 31.7865 20.3794 31.8655C20.5188 31.9064 20.6521 31.9659 20.7756 32.0424C21.0239 32.1646 21.2161 32.3769 21.3131 32.6361C21.4101 32.8953 21.4045 33.1817 21.2975 33.4368C21.1889 33.6896 20.9886 33.8917 20.7368 34.0027C20.4851 34.1136 20.2007 34.125 19.9409 34.0347C19.7508 33.9762 19.571 33.8885 19.381 33.8213C18.9044 33.6751 18.5127 33.8359 18.3358 34.2495C18.1589 34.6632 18.327 35.0637 18.7817 35.2815C19.1252 35.4452 19.4877 35.5739 19.8342 35.7288C20.9262 36.2302 21.5299 37.1043 21.603 38.2854C21.6528 38.807 21.5535 39.3321 21.3164 39.7995C21.0793 40.2669 20.7143 40.6573 20.2639 40.9252C19.9599 41.1196 19.9336 41.3433 19.9277 41.6473C19.9146 42.3329 19.4892 42.7728 18.8694 42.7816Z" fill="white"/>
</g>
<defs>
<clipPath id="clip0_20_14">
<rect width="56" height="56" fill="white"/>
</clipPath>
</defs>
</svg>
