<svg width="57" height="56" viewBox="0 0 57 56" fill="none" xmlns="http://www.w3.org/2000/svg">
<g clip-path="url(#clip0_20_44)">
<path d="M-1.86516e-05 10.8061C0.203797 10.7186 0.178502 10.5094 0.255863 10.3462C0.81524 9.21134 1.69746 8.54078 2.98433 8.45177C3.22385 8.43546 3.46634 8.43842 3.70735 8.43842C12.9658 8.43842 22.2238 8.44138 31.4813 8.44732C31.8919 8.44732 32.0883 8.34199 32.252 7.95034C34.4285 2.73131 39.7872 -0.505732 45.3036 0.0624573C51.0045 0.641031 55.6491 4.71033 56.7248 10.2854C57.6754 15.2077 56.1505 19.3646 52.3687 22.6773C52.2341 22.7819 52.1269 22.9176 52.0565 23.0726C51.986 23.2277 51.9543 23.3974 51.9641 23.5674C51.977 30.1344 51.977 36.702 51.9641 43.27C51.9641 44.9924 51.0149 46.2534 49.4469 46.6035C49.1186 46.6622 48.785 46.6861 48.4516 46.6747C43.6463 46.6747 38.841 46.6722 34.0357 46.6673C33.6162 46.6673 33.4704 46.7474 33.4764 47.2043C33.5046 49.2382 33.5002 51.2736 33.4764 53.309C33.4764 53.7051 33.5864 53.7927 33.9703 53.7897C36.5678 53.7719 39.1653 53.7763 41.7629 53.7897C42.6704 53.7897 43.2283 54.4439 42.9947 55.2035C42.942 55.4215 42.8198 55.6167 42.6466 55.7598C42.4733 55.9028 42.2583 55.9861 42.0337 55.9972C41.8852 56.0081 41.7362 56.0116 41.5873 56.0076H10.1967C9.3294 56.0076 8.86821 55.702 8.78192 55.0774C8.67927 54.3356 9.1836 53.7927 10.0123 53.7897C12.1828 53.7808 14.3549 53.7897 16.5254 53.7897C16.9881 53.7897 17.4538 53.766 17.9164 53.7897C18.2735 53.8134 18.3449 53.6755 18.3419 53.3446C18.3285 51.29 18.3226 49.2368 18.3419 47.1836C18.3419 46.7578 18.2214 46.6658 17.8123 46.6673C13.0992 46.6821 8.38618 46.6777 3.67908 46.6777C1.67811 46.6777 0.845002 46.1229 0.077345 44.2803C0.0654434 44.2536 0.0223078 44.2403 -0.00744629 44.221L-1.86516e-05 10.8061ZM49.7236 39.8832C49.7342 39.8288 49.7412 39.7738 49.7444 39.7185C49.7444 34.7606 49.7479 29.8026 49.7549 24.8447C49.7549 24.4293 49.6373 24.4382 49.3219 24.5747C46.9668 25.6115 44.3543 25.9215 41.8209 25.4648C35.2304 24.3581 30.4667 17.9226 31.3727 11.2883C31.4382 10.8061 31.3727 10.637 30.8193 10.6385C21.7463 10.6573 12.6713 10.6622 3.59429 10.6533C2.48148 10.6533 2.22114 10.9129 2.22114 12.0226V39.3298C2.22114 39.5138 2.23304 39.6977 2.2375 39.8832C2.2375 40.9216 2.22411 41.9527 2.22262 42.9882C2.22262 44.2091 2.45917 44.448 3.67314 44.448H48.2835C48.4129 44.448 48.5424 44.448 48.6733 44.448C49.3383 44.4287 49.7251 44.0845 49.734 43.4288C49.7534 42.2509 49.731 41.067 49.7236 39.8846V39.8832ZM33.4987 12.8578C33.5018 15.6632 34.6188 18.3532 36.6055 20.3396C38.5922 22.326 41.2868 23.447 44.1001 23.4576C46.9232 23.46 49.632 22.346 51.6327 20.3598C53.6334 18.3736 54.7626 15.6774 54.7729 12.8623C54.7737 10.0474 53.6532 7.34742 51.6578 5.35628C49.6624 3.36514 46.9557 2.24589 44.1328 2.24471C42.7351 2.24334 41.3508 2.51704 40.0593 3.05012C38.7678 3.5832 37.5945 4.36517 36.6066 5.35124C35.6187 6.3373 34.8357 7.50807 34.3024 8.79645C33.7691 10.0848 33.4959 11.4655 33.4987 12.8593V12.8578ZM25.8742 53.7778C27.5107 53.7778 29.1352 53.7615 30.7658 53.7882C31.1927 53.7956 31.2835 53.6695 31.279 53.2645C31.2567 51.2321 31.2597 49.1997 31.279 47.1687C31.279 46.7979 31.2076 46.6628 30.8 46.6643C27.5389 46.6821 24.2779 46.6821 21.0168 46.6643C20.633 46.6643 20.5705 46.7919 20.5705 47.1376C20.5854 49.1893 20.5943 51.2395 20.5705 53.2897C20.5705 53.7348 20.7193 53.7912 21.1061 53.7852C22.6875 53.7674 24.2808 53.7793 25.8742 53.7793V53.7778Z" fill="white"/>
<path d="M2.24346 39.8892H49.7236C49.7311 41.076 49.7534 42.2554 49.74 43.4377C49.7311 44.0935 49.3443 44.4376 48.6793 44.4569C48.5483 44.4569 48.4189 44.4569 48.2895 44.4569H3.67909C2.46512 44.4569 2.2256 44.2181 2.22857 42.9971C2.23006 41.9587 2.239 40.9232 2.24346 39.8892Z" fill="#00BBFC"/>
<path d="M17.1205 23.5718C15.7042 23.5718 15.7042 23.5718 15.7042 22.1624C15.7042 20.8866 15.7191 19.6122 15.6968 18.3364C15.6968 17.9373 15.786 17.743 16.219 17.7964C16.5163 17.8129 16.8143 17.8129 17.1116 17.7964L19.3342 17.7816C19.7672 17.8572 20.3355 17.5946 20.6107 17.9062C20.8859 18.2177 20.697 18.7963 20.7014 19.2414C20.7148 20.4771 20.6851 21.7144 20.7178 22.9502C20.7297 23.4308 20.6092 23.637 20.1049 23.5703C19.8466 23.5545 19.5875 23.5579 19.3298 23.5807L17.1205 23.5718Z" fill="#00BBFC"/>
<path d="M10.411 25.8818C10.8454 25.9589 11.4152 25.7008 11.6934 26.0034C11.9716 26.3061 11.7841 26.8935 11.7901 27.3386C11.8064 28.5595 11.7752 29.7805 11.8049 30.9999C11.8183 31.4984 11.683 31.7417 11.1519 31.669C10.9109 31.6557 10.6694 31.6586 10.4288 31.6779C9.68692 31.6053 8.93989 31.6013 8.19726 31.666C6.80477 31.6541 6.80477 31.6542 6.80477 30.2626C6.80477 28.9927 6.81966 27.7228 6.79585 26.4544C6.78693 26.0301 6.89403 25.8373 7.34779 25.8892C7.64505 25.9073 7.94314 25.9073 8.24041 25.8892L10.411 25.8818Z" fill="#00BBFC"/>
<path d="M26.0066 31.6704C24.6111 31.6585 24.6111 31.6585 24.6111 30.2684C24.6111 28.9985 24.6275 27.7272 24.6022 26.4573C24.5933 26.033 24.7034 25.8431 25.1556 25.8935C25.4529 25.9116 25.751 25.9116 26.0483 25.8935L28.2337 25.8772C28.6681 25.9543 29.2364 25.6947 29.5146 26.0003C29.7928 26.3059 29.6054 26.8905 29.6113 27.3355C29.6262 28.555 29.5964 29.7759 29.6262 30.9953C29.6381 31.4923 29.5057 31.7371 28.9731 31.6644C28.7327 31.6511 28.4916 31.6541 28.2516 31.6733C27.5049 31.6036 26.7534 31.6026 26.0066 31.6704Z" fill="#00BBFC"/>
<path d="M28.2263 25.8815L26.0408 25.8978C26.0304 24.5627 26.014 23.2379 26.0111 21.9072C26.0051 19.6136 26.0051 17.3206 26.0111 15.0281C26.0111 14.2863 26.3815 13.8413 26.9959 13.7804C27.2746 13.7422 27.5572 13.8152 27.7823 13.9835C28.0073 14.1519 28.1567 14.4019 28.198 14.6794C28.2217 14.8067 28.2337 14.9358 28.2337 15.0652C28.2337 18.6672 28.2312 22.2726 28.2263 25.8815Z" fill="white"/>
<path d="M10.411 25.8813L8.22702 25.8977C8.21661 24.6782 8.19875 23.4602 8.19577 22.2408C8.19577 19.8553 8.19577 17.4698 8.19577 15.0843C8.19577 14.2936 8.55282 13.8381 9.18212 13.7802C9.46077 13.7424 9.74315 13.8156 9.96812 13.9838C10.1931 14.1521 10.3426 14.4019 10.3842 14.6793C10.408 14.8065 10.42 14.9356 10.4199 15.065C10.4189 18.667 10.4159 22.2724 10.411 25.8813Z" fill="white"/>
<path d="M17.1205 23.5718L19.3253 23.5881C19.3253 27.1485 19.3253 30.709 19.3253 34.2695C19.3253 35.1596 18.94 35.6476 18.2542 35.6714C17.9841 35.6874 17.7178 35.6013 17.5086 35.4303C17.2993 35.2593 17.1623 35.0159 17.125 34.7486C17.1117 34.6762 17.1042 34.6027 17.1027 34.5291L17.1205 23.5718Z" fill="white"/>
<path d="M40.3555 35.6847C38.8738 35.6847 37.3915 35.6847 35.9088 35.6847C35.0846 35.6847 34.5892 35.2752 34.5698 34.6032C34.5564 33.9059 35.0652 33.4668 35.9088 33.4653C38.8931 33.4653 41.877 33.4653 44.8603 33.4653C44.9347 33.4653 45.0091 33.4653 45.082 33.4653C45.7693 33.5069 46.2141 33.949 46.2126 34.5839C46.2111 35.2189 45.7663 35.6728 45.073 35.6788C43.5065 35.6936 41.931 35.6832 40.3555 35.6847Z" fill="white"/>
<path d="M40.421 28.1216C41.9226 28.1216 43.4237 28.1216 44.9243 28.1216C45.7455 28.1216 46.223 28.54 46.2201 29.2342C46.2171 29.9285 45.7395 30.3395 44.9153 30.341C41.9131 30.341 38.911 30.341 35.9088 30.341C35.0846 30.341 34.5936 29.933 34.5802 29.2535C34.5654 28.5503 35.0667 28.1231 35.9192 28.1216C37.4198 28.1196 38.9204 28.1196 40.421 28.1216Z" fill="white"/>
<path d="M19.3298 17.7859L17.1071 17.8008C17.1071 16.8765 17.0937 15.9523 17.1071 15.028C17.1071 14.2418 17.5356 13.7745 18.205 13.7715C18.8745 13.7685 19.3134 14.2358 19.3268 15.0132C19.3387 15.9374 19.3283 16.8617 19.3298 17.7859Z" fill="white"/>
<path d="M8.19133 31.6702C8.93396 31.6055 9.681 31.6095 10.4229 31.6821C10.4229 32.6211 10.4393 33.5617 10.408 34.5008C10.3768 35.4398 9.52282 35.9843 8.76112 35.5481C8.352 35.3182 8.18835 34.9473 8.18835 34.4889C8.19579 33.5484 8.19282 32.6093 8.19133 31.6702Z" fill="white"/>
<path d="M26.0066 31.6702C26.7493 31.6062 27.4962 31.6102 28.2382 31.682C28.2382 32.6033 28.2382 33.5231 28.2278 34.4443C28.2173 35.0748 27.9228 35.4962 27.4348 35.643C27.2714 35.6946 27.098 35.707 26.9289 35.6792C26.7597 35.6514 26.5995 35.5842 26.4614 35.483C26.3232 35.3818 26.2109 35.2495 26.1337 35.0968C26.0565 34.9442 26.0165 34.7755 26.017 34.6046C25.9902 33.6225 26.0096 32.6463 26.0066 31.6702Z" fill="white"/>
<path d="M46.2022 12.5031C46.2022 13.5416 46.1576 14.58 46.2111 15.6081C46.3138 17.5604 44.9124 19.1226 42.8683 19.4415C40.9729 19.7382 39.0969 18.7146 38.4736 17.0679C37.7773 15.2313 38.9095 13.1944 40.9729 12.5936C41.7932 12.3341 42.6748 12.3398 43.4916 12.6099C43.984 12.782 43.9855 12.601 43.9811 12.2153C43.9662 10.6635 43.9811 9.11028 43.9811 7.55704C43.9811 6.59868 44.3634 6.22187 45.3304 6.21297C46.4432 6.20505 47.5555 6.20505 48.6674 6.21297C49.5049 6.21297 49.987 6.61649 49.9974 7.29446C50.0078 7.97243 49.499 8.42045 48.6495 8.43083C47.9994 8.43825 47.3493 8.46495 46.7036 8.42045C46.2573 8.39078 46.1903 8.55396 46.1993 8.94858C46.2156 10.1369 46.2022 11.3193 46.2022 12.5031ZM42.2137 17.2504C43.1792 17.2504 43.9989 16.6451 43.9722 15.9256C43.9454 15.2061 43.1614 14.6423 42.2256 14.6438C41.2898 14.6453 40.5088 15.2372 40.5043 15.9434C40.4998 16.6495 41.2675 17.2489 42.2137 17.2548V17.2504Z" fill="white"/>
</g>
<defs>
<clipPath id="clip0_20_44">
<rect width="57" height="56" fill="white"/>
</clipPath>
</defs>
</svg>
