<svg width="56" height="56" viewBox="0 0 56 56" fill="none" xmlns="http://www.w3.org/2000/svg">
<g clip-path="url(#clip0_20_60)">
<path d="M33.1459 0H53.3803C53.3978 0.0277712 53.4095 0.074545 53.4344 0.0833148C55.2369 0.679666 56.0044 1.72474 56.0044 3.59126C56.0044 13.5071 56.0044 23.4233 56.0044 33.3401C56.0044 35.477 54.6229 36.8481 52.4783 36.8481C49.0325 36.8481 45.5883 36.8598 42.1425 36.8349C41.6572 36.8349 41.5578 36.9533 41.5578 37.4196C41.5773 42.4866 41.5802 47.5536 41.5665 52.6207C41.5665 54.55 40.1412 55.962 38.2173 55.9825C37.3241 55.9825 36.4308 55.9825 35.5376 55.9825H3.49105C1.86102 55.9825 0.767515 55.2312 0.169593 53.7228C0.133045 53.6307 0.149127 53.4962 0.00585938 53.467V23.5179C0.0438691 23.4842 0.0979434 23.4579 0.116948 23.417C0.891762 21.5973 1.78792 21.0024 3.76004 21.0024C12.5237 21.0024 21.2879 21.0063 30.0525 21.0141C30.5262 21.0141 30.6461 20.9132 30.6373 20.4294C30.6168 14.7641 30.6227 9.09728 30.6256 3.43049C30.6256 1.87237 31.3975 0.755676 32.8331 0.188558C32.9398 0.140324 33.1006 0.160781 33.1459 0ZM30.6124 30.8407C30.6124 29.8936 30.6124 28.9406 30.6388 28.0007C30.6504 27.6368 30.5393 27.5535 30.187 27.5549C21.0033 27.5637 11.8191 27.5637 2.63437 27.5549C2.28059 27.5549 2.18409 27.6412 2.18409 28.0007C2.19384 36.186 2.19726 44.3677 2.19434 52.5461C2.19434 53.3997 2.61243 53.8105 3.47935 53.8105H38.0843C38.9775 53.8105 39.3766 53.4012 39.3795 52.495C39.3795 51.0918 39.3795 49.6886 39.3795 48.2854C39.3795 44.6401 39.3795 40.9962 39.3898 37.3509C39.3898 36.9475 39.3035 36.8261 38.8869 36.8437C37.96 36.8832 37.0302 36.8656 36.1005 36.8729L33.9763 36.8539C32.0612 36.8335 30.649 35.4215 30.63 33.5067C30.6168 32.6195 30.6139 31.7294 30.6081 30.8392L30.6124 30.8407ZM32.817 20.178V33.1867C32.817 34.318 33.162 34.6702 34.2687 34.6702H52.3657C53.4592 34.6702 53.8174 34.318 53.8174 33.2407C53.8174 24.5313 53.8213 15.8213 53.8291 7.11091C53.8291 6.65487 53.7209 6.54963 53.2677 6.54963C46.6335 6.56717 40.0004 6.56717 33.3681 6.54963C32.9135 6.54963 32.8039 6.65487 32.8053 7.11091C32.8214 11.4651 32.8126 15.8208 32.8126 20.1765L32.817 20.178ZM16.3793 25.3741C20.9331 25.3741 25.487 25.3742 30.0394 25.3844C30.4882 25.3844 30.7148 25.3259 30.6388 24.81C30.5956 24.4664 30.5956 24.1187 30.6388 23.7751C30.6899 23.3147 30.5671 23.1729 30.0642 23.1744C21.2674 23.1929 12.4706 23.1973 3.67379 23.1875C3.56415 23.1875 3.45451 23.1875 3.34632 23.1875C2.63291 23.2153 2.21627 23.6407 2.19434 24.3656C2.20532 24.5291 2.20532 24.6932 2.19434 24.8567C2.12124 25.2952 2.31129 25.3844 2.72501 25.3829C7.2701 25.3683 11.8225 25.3727 16.3749 25.3727L16.3793 25.3741ZM43.3135 4.37032H48.9975C50.474 4.37032 51.949 4.37032 53.4256 4.37032C53.5601 4.37032 53.7428 4.47264 53.8159 4.21392C54.1551 3.00807 53.5498 2.18809 52.3028 2.18809H41.973C39.3503 2.18809 36.7271 2.18809 34.1035 2.18809C33.4354 2.18809 33.0334 2.44387 32.8652 2.96276C32.7688 3.26386 32.8521 3.58103 32.8082 3.88359C32.7454 4.30601 32.915 4.3864 33.3126 4.38348C36.6458 4.37033 39.9804 4.37032 43.3135 4.37032Z" fill="white"/>
<path d="M36.096 36.8759C36.096 37.9692 36.08 39.0683 36.096 40.1543C36.1048 40.5475 36.0054 40.6937 35.5829 40.6937C25.7062 40.682 15.83 40.682 5.95434 40.6937C5.57278 40.6937 5.45436 40.5767 5.45582 40.1953C5.46898 37.2442 5.47775 34.2917 5.45582 31.3406C5.45582 30.7764 5.76721 30.8422 6.11661 30.8422H29.9458H30.6022C30.6022 31.7323 30.6109 32.6225 30.6197 33.5126C30.6387 35.4274 32.0509 36.8393 33.966 36.8598L36.096 36.8759Z" fill="#00BBFC"/>
<path d="M24.1187 10.9374C20.7563 10.9374 17.4962 10.9374 14.2376 10.9374C13.5827 10.9374 13.1441 11.3876 13.1309 12.0424C13.1134 13.0042 13.1309 13.9674 13.1309 14.9423C13.3619 14.9423 13.4365 14.7421 13.5695 14.65C13.7758 14.4959 14.0304 14.4208 14.2874 14.4382C14.5443 14.4556 14.7865 14.5645 14.97 14.745C15.375 15.1367 15.4641 15.7521 15.0709 16.176C14.3058 17.0052 13.5081 17.8038 12.6777 18.5716C12.2582 18.9604 11.6895 18.8946 11.2465 18.4693C10.536 17.7882 9.8431 17.0895 9.156 16.3864C8.64433 15.8632 8.6151 15.2449 9.05075 14.7786C9.4864 14.3124 10.0946 14.3197 10.6588 14.7903C10.7246 14.8459 10.786 14.9073 10.9366 15.0447V12.4137C10.9366 10.0444 12.2523 8.73619 14.6206 8.73619H24.0251C24.0251 8.50379 23.8248 8.43071 23.7327 8.29039C23.5783 8.08409 23.5028 7.82933 23.52 7.57222C23.5371 7.31511 23.6458 7.07263 23.8263 6.88867C24.2049 6.49695 24.7926 6.3961 25.2122 6.75567C26.0986 7.51263 26.9242 8.33808 27.6813 9.22439C28.0512 9.66288 27.9635 10.1891 27.5176 10.6509C26.8354 11.3584 26.14 12.0541 25.4315 12.7382C24.93 13.2205 24.316 13.2308 23.8658 12.8083C23.4155 12.3859 23.4038 11.7852 23.8394 11.2444C23.9067 11.1771 23.9769 11.0938 24.1187 10.9374Z" fill="white"/>
<path d="M11.7274 46.7011C9.68075 46.7011 7.64723 46.7011 5.60787 46.7011C4.83305 46.7011 4.34624 46.2275 4.38278 45.5508C4.41787 44.9164 4.87836 44.5276 5.61663 44.5189C7.31098 44.5116 9.00388 44.5189 10.6982 44.5189C13.1016 44.5189 15.505 44.5189 17.9084 44.5189C18.8528 44.5189 19.3981 45.3038 19.0224 46.0872C18.7855 46.5813 18.3543 46.7069 17.8455 46.7055C15.8062 46.6982 13.7668 46.7011 11.7274 46.7011Z" fill="white"/>
<path d="M29.7733 46.701C27.7163 46.701 25.658 46.701 23.601 46.701C22.9023 46.701 22.4227 46.2348 22.4315 45.6063C22.4403 44.9777 22.911 44.5393 23.6157 44.5173H23.7253C27.7846 44.5173 31.8448 44.5173 35.906 44.5173C36.9161 44.5173 37.4907 45.3358 37.0521 46.1368C36.805 46.5885 36.3855 46.7083 35.8972 46.7069C33.852 46.6966 31.8126 46.701 29.7733 46.701Z" fill="white"/>
<path d="M11.7597 51.6224H5.85938C5.69559 51.6285 5.53158 51.6251 5.36818 51.6122C5.09278 51.5887 4.83693 51.4604 4.65354 51.2536C4.47014 51.0469 4.37323 50.7775 4.38286 50.5014C4.38533 50.2345 4.48774 49.9783 4.66987 49.7832C4.852 49.5881 5.10062 49.4683 5.36672 49.4475C5.62121 49.4304 5.87641 49.4265 6.1313 49.4358C10.0463 49.4358 13.9613 49.4358 17.8763 49.4358C18.8543 49.4358 19.4142 50.228 19.0137 51.0246C18.7798 51.4894 18.3675 51.6239 17.8778 51.6224C15.8384 51.6195 13.799 51.6224 11.7597 51.6224Z" fill="white"/>
<path d="M29.8084 51.6224H23.9082C23.7444 51.6285 23.5803 51.6251 23.417 51.6122C23.1413 51.5895 22.8849 51.4616 22.701 51.2551C22.517 51.0486 22.4195 50.7792 22.4287 50.5028C22.4315 50.2359 22.5339 49.9797 22.716 49.7844C22.898 49.5892 23.1465 49.469 23.4126 49.4475C23.6305 49.4312 23.8492 49.4272 24.0675 49.4358C28.0195 49.4358 31.9706 49.4358 35.9207 49.4358C36.9002 49.4358 37.4601 50.2266 37.061 51.0232C36.8271 51.488 36.4163 51.6239 35.9265 51.6224C33.8872 51.6195 31.8478 51.6224 29.8084 51.6224Z" fill="white"/>
<path d="M43.2945 9.84275C45.5181 9.84275 47.7402 9.85444 49.9623 9.83252C50.4228 9.83252 50.5471 9.97868 50.5471 10.4172C50.5295 13.6786 50.5295 16.9395 50.5471 20.2C50.5471 20.6706 50.3877 20.7729 49.9506 20.7715C45.5229 20.7588 41.0953 20.7588 36.6677 20.7715C36.2057 20.7715 36.0829 20.6253 36.0829 20.1868C36.0995 16.9254 36.0995 13.6645 36.0829 10.404C36.0829 9.93045 36.2437 9.83106 36.6794 9.83545C38.8854 9.85299 41.0899 9.84275 43.2945 9.84275Z" fill="#00BBFC"/>
<path d="M43.318 27.0258C40.9682 27.0258 38.6194 27.0258 36.2716 27.0258C35.7804 27.0258 35.3681 26.9015 35.1298 26.4411C35.0515 26.2963 35.0078 26.1354 35.0019 25.971C34.996 25.8065 35.0283 25.6429 35.096 25.493C35.1638 25.343 35.2653 25.2107 35.3926 25.1064C35.52 25.0022 35.6697 24.9287 35.8301 24.8918C36.0436 24.8485 36.2615 24.8309 36.4792 24.8391C41.0316 24.8391 45.5839 24.8391 50.1363 24.8391C50.2635 24.8391 50.3907 24.8391 50.5179 24.8391C51.1889 24.8903 51.6319 25.3405 51.6187 25.9558C51.6056 26.5712 51.1655 27.0141 50.474 27.017C48.0897 27.0331 45.7038 27.0258 43.318 27.0258Z" fill="white"/>
<path d="M43.3677 30.0557H50.1407C50.3232 30.0498 50.5058 30.0557 50.6875 30.0732C50.9343 30.0992 51.1636 30.2127 51.3339 30.3931C51.5042 30.5736 51.6042 30.8091 51.6158 31.0569C51.6362 31.3038 51.5705 31.5501 51.4298 31.754C51.289 31.9578 51.082 32.1066 50.8439 32.1751C50.5964 32.236 50.341 32.2586 50.0866 32.2423H36.5391C36.3213 32.2491 36.1034 32.2344 35.8885 32.1985C35.6254 32.1542 35.3887 32.0121 35.226 31.8006C35.0633 31.5892 34.9867 31.324 35.0114 31.0584C35.0242 30.7913 35.1392 30.5394 35.3328 30.3549C35.5263 30.1704 35.7834 30.0675 36.0508 30.0674C36.4675 30.044 36.887 30.0571 37.3066 30.0571L43.3677 30.0557Z" fill="white"/>
</g>
<defs>
<clipPath id="clip0_20_60">
<rect width="56" height="56" fill="white"/>
</clipPath>
</defs>
</svg>
